<svg xmlns="http://www.w3.org/2000/svg" viewBox="0 0 152.5 154.1"><linearGradient id="a" gradientUnits="userSpaceOnUse" x1="35.059" y1="118.781" x2="127.093" y2="26.748"><stop offset="0" stop-color="#0078b4"/><stop offset=".069" stop-color="#0081ba"/><stop offset=".501" stop-color="#00b8df"/><stop offset=".824" stop-color="#00d9f6"/><stop offset="1" stop-color="#00e6ff"/></linearGradient><path d="M78.4 11.1c.4 1.1 10.1 16.6 7.5 48.3-3.3-4.2-9.6-12.1-15.9-20.1l3.2-27.8-6.9-.8-2.4 20.9-6.3-8L60.2.7 53.3 0l-1.8 16-11-13.8L35 6.5l11 13.9-16.1-1.8-.8 6.9 23 2.6 6.3 8-21-2.4-.8 6.9 27.9 3.2 6.4 8-34.2-3.9L58 74.8l-10.2-1.2-17.3-22-5.4 4.4 13.1 16.5-10.1-1.2-14.3-18-5.4 4.3 10 12.6-17.5-2L0 75l17.6 2L4.9 87.1l4.3 5.4 18.1-14.4 10.1 1.2-16.5 13.2 4.3 5.4 22-17.5 10.2 1.2-27 21.4 34.1 3.9-8 6.4-27.8-3.2-.8 6.9 20.9 2.4-8 6.3-22.8-2.6-.8 6.9 16 1.8-13.8 11 4.3 5.4 13.9-11-1.8 16.1 6.9.8 2.6-23 8-6.3-2.4 21 6.9.8 3.2-27.9 8-6.4 3-2.4c-3.8 12.6-5.1 26.9 2.7 43.6 42.5 4.7 79.5-28.5 79.5-71.1-.1-40.8-34.5-73.7-75.8-71.3zM52.6 56.6L77 59.4 92.9 79l-25-3.2-15.3-19.2zM47.9 98l19.3-15.3 25 2.6-19.9 15.5L47.9 98zm28.4 47.4c-2.1-12.2 0-32.4 11.7-33.9 11.5-1.4 19.3 1.8 23.6-3.8 3.5-4.6.3-6.5-1.3-10.5-.4-2.8 3.8-2.5 3.4-5.5-.3-2.5-1.6-2.7-3.2-3.9.9-.6 2.6-2 2.4-3.8-.3-2.7-4.2-2.6-4.5-5.1-.6-4.7 7.5-2.5 6.7-8.9-.5-4-12.9-5.7-17.3-18.9 2.8-1.8 3.5-3.5 4.3-6.1-1.3 2.5-2.4 4-4.9 4.5C97 36.9 93 23.7 83.8 15.2c32.4.1 60.5 24.1 64.6 57.1 5.3 42-30.1 77.8-72.1 73.1z" fill="url(#a)"/></svg>