<svg xmlns="http://www.w3.org/2000/svg" viewBox="0 0 281.6 220.8"><linearGradient id="a" gradientUnits="userSpaceOnUse" x1="95.105" y1="118.781" x2="187.138" y2="26.748"><stop offset="0" stop-color="#0078b4"/><stop offset=".069" stop-color="#0081ba"/><stop offset=".501" stop-color="#00b8df"/><stop offset=".824" stop-color="#00d9f6"/><stop offset="1" stop-color="#00e6ff"/></linearGradient><path d="M138.4 11.1c.4 1.1 10.1 16.6 7.5 48.3-3.3-4.2-9.6-12.1-15.9-20.1l3.2-27.8-6.9-.8-2.4 20.9-6.3-8L120.2.7l-6.9-.7-1.8 16-11-13.8-5.4 4.3 11 13.9L90 18.5l-.8 6.9 23 2.6 6.3 8-21-2.4-.8 6.9 27.9 3.2 6.4 8-34.2-3.9 21.3 26.9-10.1-1.2-17.4-21.9-5.5 4.4 13.1 16.5-10.1-1.2-14.3-18-5.4 4.3 10 12.6-17.5-2L60 75l17.6 2L65 87.1l4.3 5.4 18.1-14.4 10.1 1.2L81 92.5l4.3 5.4 22-17.5 10.2 1.2-27 21.4 34.1 3.9-8 6.4-27.8-3.2-.8 6.9 20.9 2.4-8 6.3-22.9-2.6-.8 6.9 16 1.8-13.8 11 4.3 5.4 13.9-11-1.8 16.1 6.9.8 2.6-23 8-6.3-2.4 21 6.9.8 3.2-27.9 8-6.4 3-2.4c-3.8 12.6-5.1 26.9 2.7 43.6 42.5 4.7 79.5-28.5 79.5-71.1-.1-40.8-34.4-73.7-75.8-71.3zm-25.7 45.5l24.4 2.8L152.9 79l-25-3.2-15.2-19.2zM108 98l19.3-15.3 25 2.6-19.9 15.5L108 98zm28.4 47.4c-2.1-12.2 0-32.4 11.7-33.9 11.5-1.4 19.3 1.8 23.6-3.8 3.5-4.6.3-6.5-1.3-10.5-.4-2.8 3.8-2.5 3.4-5.5-.3-2.5-1.6-2.7-3.2-3.9.9-.6 2.6-2 2.4-3.8-.3-2.7-4.2-2.6-4.5-5.1-.6-4.7 7.5-2.5 6.7-8.9-.5-4-12.9-5.7-17.3-18.9 2.8-1.8 3.5-3.5 4.3-6.1-1.3 2.5-2.4 4-4.9 4.5-.2-12.6-4.2-25.8-13.4-34.3 32.4.1 60.5 24.1 64.6 57.1 5.3 42-30.1 77.8-72.1 73.1z" fill="url(#a)"/><linearGradient id="b" gradientUnits="userSpaceOnUse" x1="-52.645" y1="192.675" x2="175.233" y2="228.928"><stop offset="0" stop-color="#0078b4"/><stop offset=".069" stop-color="#0081ba"/><stop offset=".501" stop-color="#00b8df"/><stop offset=".824" stop-color="#00d9f6"/><stop offset="1" stop-color="#00e6ff"/></linearGradient><path d="M21.9 192.7l-2.5 5.1c-2.7-1.6-6.1-2.7-8.2-2.7-1.7 0-2.8.6-2.8 1.9 0 4.4 13.6 1.9 13.6 11.2 0 5.1-4.5 7.8-10.3 7.8-4.3 0-8.7-1.6-11.7-4.1l2.5-5c2.6 2.3 6.6 3.9 9.3 3.9 2.1 0 3.3-.8 3.3-2.2 0-4.5-13.6-1.8-13.6-10.9 0-4.7 4.1-7.7 10.2-7.7 3.8-.2 7.6 1 10.2 2.7z" fill="url(#b)"/><linearGradient id="c" gradientUnits="userSpaceOnUse" x1="-51.928" y1="188.17" x2="175.949" y2="224.423"><stop offset="0" stop-color="#0078b4"/><stop offset=".069" stop-color="#0081ba"/><stop offset=".501" stop-color="#00b8df"/><stop offset=".824" stop-color="#00d9f6"/><stop offset="1" stop-color="#00e6ff"/></linearGradient><path d="M47.2 215.8L35.4 200v15.8h-6.1v-25.7H35L46.8 206v-15.8h6.1v25.7h-5.7z" fill="url(#c)"/><linearGradient id="d" gradientUnits="userSpaceOnUse" x1="-51.123" y1="183.11" x2="176.754" y2="219.363"><stop offset="0" stop-color="#0078b4"/><stop offset=".069" stop-color="#0081ba"/><stop offset=".501" stop-color="#00b8df"/><stop offset=".824" stop-color="#00d9f6"/><stop offset="1" stop-color="#00e6ff"/></linearGradient><path d="M87.8 202.9c0 7.5-5.9 13.2-13.9 13.2-7.9 0-13.9-5.6-13.9-13.2 0-7.5 5.9-13 13.9-13s13.9 5.6 13.9 13zm-21.1.1c0 4.3 3.3 7.7 7.3 7.7s7.1-3.3 7.1-7.7c0-4.3-3.2-7.6-7.1-7.6-4 0-7.3 3.2-7.3 7.6z" fill="url(#d)"/><linearGradient id="e" gradientUnits="userSpaceOnUse" x1="-50.076" y1="176.525" x2="177.802" y2="212.778"><stop offset="0" stop-color="#0078b4"/><stop offset=".069" stop-color="#0081ba"/><stop offset=".501" stop-color="#00b8df"/><stop offset=".824" stop-color="#00d9f6"/><stop offset="1" stop-color="#00e6ff"/></linearGradient><path d="M116.7 215.8l-4.8-17.8-4.8 17.8h-6.7L92 190.1h7l5 18.9 4.9-18.9h6.4l5 18.9 5-18.9h6.7l-8.5 25.7h-6.8z" fill="url(#e)"/><path d="M165.2 218.3c-2 1.8-4.3 2.8-6.6 2.8-3 0-5.7-1.8-8.1-5.1h-.3c-7.5 0-13.5-5.8-13.5-13 0-7.3 5.9-12.9 13.5-12.9 7.5 0 13.4 5.7 13.4 12.9 0 6.1-4.2 11.1-9.9 12.5 1.8 1.9 3.5 2.9 5.2 2.9 1.5 0 3.2-.8 5-2.3l1.3 2.2zm-15-5.2c5.7 0 10.4-4.5 10.4-10.2 0-5.6-4.7-10.1-10.4-10.1s-10.5 4.5-10.5 10.1c.1 5.7 4.8 10.2 10.5 10.2zm44.1-7.9c0 6.7-4 10.7-10.7 10.7-6.7 0-10.8-4-10.8-10.7v-15.1h2.9v15.1c0 5 3 7.9 7.9 7.9s7.8-2.9 7.8-7.9v-15.1h2.9v15.1zm13.8-12.2v8.4H221v2.8h-12.9v8.8h15v2.8h-17.9v-25.7h17.4v2.8h-14.5zm27.5 0v8.4h12.9v2.8h-12.9v8.8h15v2.8h-17.9v-25.7h17.4v2.8h-14.5zm43 22.8l-15.4-20.6v20.6h-2.9v-25.7h3l15.4 20.6v-20.6h2.9v25.7h-3z" fill="#0078b4"/></svg>