<svg id="Logo" xmlns="http://www.w3.org/2000/svg" viewBox="0 0 281.6 220.8"><style>.st0{fill:#d8e0e5}</style><path class="st0" d="M47.7 195.2l-2 4.1c-2.2-1.3-4.9-2.2-6.6-2.2-1.4 0-2.3.5-2.3 1.5 0 3.5 11 1.5 11 9 0 4.1-3.6 6.3-8.3 6.3-3.5 0-7-1.3-9.4-3.3l2-4c2.1 1.9 5.3 3.1 7.5 3.1 1.7 0 2.7-.6 2.7-1.8 0-3.6-11-1.5-11-8.8 0-3.8 3.3-6.2 8.2-6.2 3 0 6.1.9 8.2 2.3zM68 213.8l-9.5-12.7v12.7h-4.9v-20.7h4.6l9.5 12.8v-12.7h4.9v20.7l-4.6-.1zM100.8 203.4c0 6-4.8 10.6-11.2 10.6-6.4 0-11.2-4.5-11.2-10.6 0-6 4.8-10.5 11.2-10.5s11.2 4.6 11.2 10.5zm-17 .1c0 3.5 2.7 6.2 5.9 6.2s5.7-2.7 5.7-6.2-2.6-6.1-5.7-6.1c-3.3 0-5.9 2.6-5.9 6.1zM124.1 213.8l-3.9-14.3-3.9 14.3h-5.4l-6.8-20.7h5.6l4 15.2 3.9-15.2h5.2l4 15.2 4-15.2h5.4l-6.9 20.7h-5.2zM163.2 215.8c-1.6 1.5-3.5 2.3-5.3 2.3-2.4 0-4.6-1.5-6.5-4.1h-.2c-6 0-10.9-4.7-10.9-10.5 0-5.9 4.8-10.4 10.9-10.4 6 0 10.8 4.6 10.8 10.4 0 4.9-3.4 8.9-8 10.1 1.5 1.5 2.8 2.3 4.2 2.3 1.2 0 2.6-.6 4-1.9l1 1.8zm-12.1-4.1c4.6 0 8.4-3.6 8.4-8.2 0-4.5-3.8-8.1-8.4-8.1s-8.5 3.6-8.5 8.1c.1 4.5 3.9 8.2 8.5 8.2zM186.6 205.3c0 5.4-3.2 8.6-8.6 8.6s-8.7-3.2-8.7-8.6v-12.2h2.3v12.2c0 4 2.4 6.4 6.4 6.4s6.3-2.3 6.3-6.4v-12.2h2.3v12.2zM197.7 195.4v6.8h10.4v2.3h-10.4v7.1h12.1v2.3h-14.4v-20.7h14v2.3l-11.7-.1zM219.9 195.4v6.8h10.4v2.3h-10.4v7.1H232v2.3h-14.4v-20.7h14v2.3l-11.7-.1zM254.6 213.8l-12.4-16.6v16.6h-2.3v-20.7h2.4l12.4 16.6v-16.6h2.3v20.7h-2.4z"/><g><path class="st0" d="M188.5 20.4c-1.1.7-20 8-39.1 37.9 5.7-1.5 16.6-4.3 27.5-7.2l15.9-26.8 6.6 3.9-12 20.1 10.9-2.9 13.1-22.1 6.5 4-9.2 15.4 19-4.9 1.9 7.5-19 5 15.3 9.1L222 66l-21.9-13-10.9 2.9 20.1 11.9-3.9 6.7-26.6-15.7-11 2.8 32.6 19.3-36.8 9.7 9.8 5.7 30-8 1.8 7.5-22.6 5.9 9.7 5.7 24.7-6.5 1.8 7.4-17.3 4.5 16.7 9.9-3.8 6.6-16.8-9.9 4.3 17.4-7.4 1.9-6.2-24.8-9.7-5.7 5.6 22.7-7.4 1.9-7.5-30.2-9.8-5.7 9.3 37-32.6-19.3 2.7 11 26.6 15.7-3.9 6.7-20-11.8 2.8 10.9 21.8 12.9-3.9 6.7-15.3-9.1 4.7 19-7.4 1.9-4.8-19-9.3 15.5-6.6-3.9 13.2-22.1-2.8-10.9-12 20.2-6.6-3.9 16-26.9-2.7-11-1-4.1c-5.2 13.7-13.6 27.3-31.7 36.9C55.3 125.1 45.2 71 73.9 33.2c27.6-36.1 79.9-42.4 114.6-12.8zm-8 57.6l-23.3-13.8L130 71l24.1 13.8 26.4-6.8zm-23.8 39.9l-6.6-26.4-23.7-14.3 7 27 23.3 13.7zM99.9 141c10.1-9.4 21.8-28.8 12.6-37.9-9.2-8.9-18.2-11.3-18.2-19.1 0-6.4 4.1-6 8.2-8.5 2.2-2.2-1.7-4.8.7-7.1 1.9-2 3.2-1.3 5.4-1.3-.4-1.1-.9-3.5.5-5 2.1-2.2 5.4.5 7.4-1.5 3.7-3.8-4.9-7.2.1-12.4 3.1-3.2 15.2 3.5 27.9-5.3-1.2-3.5-.7-5.4.3-8.3-.5 3.1-.6 5.1 1.3 7.3 8.7-11.1 21.1-20.1 34.9-21.5C152.5-1 111.6 1.5 85.8 28.1c-32.9 33.7-26 89.1 14.1 112.9z"/></g></svg>