<svg id="Logo" xmlns="http://www.w3.org/2000/svg" viewBox="0 0 281.6 220.8"><style>.st0{fill:#d8e0e5}</style><path class="st0" d="M47.7 195.2l-2 4.1c-2.2-1.3-4.9-2.2-6.6-2.2-1.4 0-2.3.5-2.3 1.5 0 3.5 11 1.5 11 9 0 4.1-3.6 6.3-8.3 6.3-3.5 0-7-1.3-9.4-3.3l2-4c2.1 1.9 5.3 3.1 7.5 3.1 1.7 0 2.7-.6 2.7-1.8 0-3.6-11-1.5-11-8.8 0-3.8 3.3-6.2 8.2-6.2 3 0 6.1.9 8.2 2.3zM68 213.8l-9.5-12.7v12.7h-4.9v-20.7h4.6l9.5 12.8v-12.7h4.9v20.7l-4.6-.1zm32.8-10.4c0 6-4.8 10.6-11.2 10.6-6.4 0-11.2-4.5-11.2-10.6 0-6 4.8-10.5 11.2-10.5s11.2 4.6 11.2 10.5zm-17 .1c0 3.5 2.7 6.2 5.9 6.2s5.7-2.7 5.7-6.2-2.6-6.1-5.7-6.1c-3.3 0-5.9 2.6-5.9 6.1zm40.3 10.3l-3.9-14.3-3.9 14.3h-5.4l-6.8-20.7h5.6l4 15.2 3.9-15.2h5.2l4 15.2 4-15.2h5.4l-6.9 20.7h-5.2zm39.1 2c-1.6 1.5-3.5 2.3-5.3 2.3-2.4 0-4.6-1.5-6.5-4.1h-.2c-6 0-10.9-4.7-10.9-10.5 0-5.9 4.8-10.4 10.9-10.4 6 0 10.8 4.6 10.8 10.4 0 4.9-3.4 8.9-8 10.1 1.5 1.5 2.8 2.3 4.2 2.3 1.2 0 2.6-.6 4-1.9l1 1.8zm-12.1-4.1c4.6 0 8.4-3.6 8.4-8.2 0-4.5-3.8-8.1-8.4-8.1s-8.5 3.6-8.5 8.1c.1 4.5 3.9 8.2 8.5 8.2zm35.5-6.4c0 5.4-3.2 8.6-8.6 8.6s-8.7-3.2-8.7-8.6v-12.2h2.3v12.2c0 4 2.4 6.4 6.4 6.4s6.3-2.3 6.3-6.4v-12.2h2.3v12.2zm11.1-9.9v6.8h10.4v2.3h-10.4v7.1h12.1v2.3h-14.4v-20.7h14v2.3l-11.7-.1zm22.2 0v6.8h10.4v2.3h-10.4v7.1H232v2.3h-14.4v-20.7h14v2.3l-11.7-.1zm34.7 18.4l-12.4-16.6v16.6h-2.3v-20.7h2.4l12.4 16.6v-16.6h2.3v20.7h-2.4zM225.8 109.4l-26.2 7-12.7-7.3 27.9-7.5-1.8-6.7-34.6 9.3-11.5-6.6 19.5-5.2-1.3-5 1.3-5-19.6-5.3 11.5-6.6 34.7 9.3 1.8-6.7-28-7.5 12.7-7.3 26.3 7.1 1.8-6.7-19.6-5.4 14.8-8.5-3.5-6-14.7 8.5 5.2-19.5-6.7-1.8-7 26.2-46.7 27c13.1-29.3 30.5-49.5 48.7-59.4C157.9-11 100.7-1.4 72.7 39.9 45.6 79.8 56 134.1 95.9 161.1c2.7 1.8 5.5 3.5 8.3 5 22.2-13.3 29.9-31.4 34.5-48.9v34.3l-19.3 19.3 4.9 4.9 14.4-14.4v17.1h7v-17l14.3 14.3 4.9-4.9-19.2-19.2V137l20.4 20.4 4.9-4.9-25.3-25.3v-13.3l14.3 14.3 3.7-3.7 5-1.3-5.3-19.6 11.5 6.6 9.3 34.7 6.7-1.8-7.5-28 12.7 7.3 7.1 26.3 6.7-1.8-5.3-19.6 14.8 8.5 3.5-6-14.7-8.5 19.5-5.2-1.9-6.7zM120.5 54.1c-5.2 5.9 4.5 9.2.7 13.6-2 2.3-5.9-.4-8.1 2.1-1.5 1.7-.7 4.2-.2 5.5-2.5.2-3.8-.5-5.9 1.8-2.4 2.7 2 5.3-.3 7.9-4.3 2.9-9 2.7-8.5 9.7.5 8.5 10.6 10.6 21.2 19.9 9.4 8.3 1.9 27.2-9.4 40-.7.8-1.3 1.5-2 2.2-5.5-2.9-10.7-6.4-15.5-10.7C59.4 117 56.2 66.6 85.3 33.5 112.1 3 157-2 189.7 20.1c-14.8 2.3-27.6 12.4-36.4 24.6-2.7-2-2.1-9.5-2.1-9.5-2.9 5.5-1.1 10.6-.6 11.9-13.4 9.9-26.9 3.3-30.1 7zm25.1 50V93.4l9.2 5.3 5.3 19.9-14.5-14.5zm12.8-11.5l-9.3-5.4 9.2-5.3 19.9 5.3-19.8 5.4z"/></svg>