<svg id="Logo" xmlns="http://www.w3.org/2000/svg" viewBox="0 0 281.6 31"><style>.st0{fill:#fff}</style><path class="st0" d="M21.9 2.9L19.5 8c-2.7-1.6-6.1-2.7-8.2-2.7-1.7 0-2.8.6-2.8 1.9C8.4 11.6 22 9.1 22 18.3c0 5.1-4.5 7.8-10.3 7.8-4.3.1-8.7-1.5-11.7-4l2.5-5c2.6 2.3 6.6 3.9 9.3 3.9 2.1 0 3.3-.8 3.3-2.2 0-4.5-13.6-1.8-13.6-10.9C1.6 3 5.6 0 11.8 0c3.7 0 7.5 1.1 10.1 2.9zM47.2 26L35.4 10.2V26h-6.1V.3H35l11.8 15.8V.3h6.1V26h-5.7zM87.8 13.1c0 7.5-5.9 13.2-13.9 13.2C66 26.3 60 20.6 60 13.1S65.9.1 73.9.1s13.9 5.5 13.9 13zm-21.1 0c0 4.3 3.3 7.7 7.3 7.7s7.1-3.3 7.1-7.7-3.2-7.6-7.1-7.6c-4 0-7.3 3.3-7.3 7.6zM116.7 26l-4.8-17.8-4.8 17.8h-6.7L92 .3h7l5 18.9L108.9.3h6.4l5 18.9 5-18.9h6.7L123.4 26h-6.7zM165.2 28.4c-2 1.8-4.3 2.8-6.6 2.8-3 0-5.7-1.8-8.1-5.1h-.3c-7.5 0-13.5-5.8-13.5-13 0-7.3 5.9-12.9 13.5-12.9 7.5 0 13.4 5.7 13.4 12.9 0 6.1-4.2 11.1-9.9 12.5 1.8 1.9 3.5 2.9 5.2 2.9 1.5 0 3.2-.8 5-2.3l1.3 2.2zm-15-5.1c5.7 0 10.4-4.5 10.4-10.2S156 3 150.2 3s-10.5 4.5-10.5 10.1 4.8 10.2 10.5 10.2zM194.3 15.4c0 6.7-4 10.7-10.7 10.7s-10.8-4-10.8-10.7V.3h2.9v15.1c0 5 3 7.9 7.9 7.9s7.8-2.9 7.8-7.9V.3h2.9v15.1zM208.1 3.1v8.4H221v2.8h-12.9v8.8h15V26h-17.9V.3h17.4v2.8h-14.5zM235.6 3.1v8.4h12.9v2.8h-12.9v8.8h15V26h-17.9V.3h17.4v2.8h-14.5zM278.6 26L263.2 5.4V26h-2.9V.3h3l15.4 20.6V.3h2.9V26h-3z"/></svg>