<svg xmlns="http://www.w3.org/2000/svg" viewBox="0 0 152.5 154.1"><path d="M148.8 93.4l-22.7 6.1-11-6.3 24.1-6.5-1.6-5.8-30 8-10-5.7 16.9-4.5-1.2-4.3 1.2-4.3-17-4.6 10-5.7 30.1 8.1 1.6-5.8-24.2-6.7 11-6.3 22.8 6.1 1.6-5.8-17-4.6 12.8-7.4-3-5.2-12.8 7.4 4.5-16.9-5.8-1.6-6.1 22.7-40.5 23.4c11.3-25.4 26.4-42.9 42.2-51.5C89.9-11 40.4-2.6 16.1 33.2-7.4 67.7 1.6 114.8 36.2 138.3c2.4 1.6 4.8 3 7.2 4.3 19.2-11.5 25.9-27.2 29.9-42.4V130l-16.7 16.7 4.3 4.3 12.4-12.4v14.8h6v-14.7L91.7 151l4.3-4.3L79.3 130v-12.7L97 135l4.3-4.3-21.9-21.9V97.3l12.4 12.4 3.2-3.2 4.3-1.2-4.6-17 10 5.7 8.1 30.1 5.8-1.6-6.6-24.1 11 6.3 6.1 22.8 5.8-1.6-4.6-17 12.8 7.4 3-5.2-12.8-7.4 16.9-4.5-1.4-5.8zM57.5 45.5c-4.5 5.1 3.9 8 .6 11.8-1.8 2-5.1-.3-7 1.8-1.3 1.5-.6 3.6-.2 4.7-2.1.1-3.3-.5-5.1 1.6-2.1 2.4 1.7 4.6-.3 6.9-3.8 2.5-7.8 2.3-7.4 8.4.5 7.4 9.2 9.2 18.4 17.3 8.1 7.2 1.6 23.5-8.2 34.7-.6.7-1.2 1.3-1.8 1.9-4.7-2.5-9.2-5.6-13.4-9.3C4.6 100 1.8 56.3 27 27.6 50.2 1.2 89.1-3.2 117.5 16 104.7 18 93.6 26.8 86 37.4c-2.3-1.7-1.9-8.2-1.9-8.2-2.5 4.8-1 9.1-.5 10.3-11.6 8.5-23.3 2.8-26.1 6zm21.8 43.3v-9.3l7.9 4.6 4.6 17.3-12.5-12.6zm11.1-9.9l-8-4.6 7.9-4.6 17.3 4.6-17.2 4.6z" fill="#fff"/></svg>