<?xml version="1.0" encoding="utf-8"?>
<!-- Generator: Adobe Illustrator 23.0.1, SVG Export Plug-In . SVG Version: 6.00 Build 0)  -->
<svg version="1.1" id="Logo" xmlns="http://www.w3.org/2000/svg" xmlns:xlink="http://www.w3.org/1999/xlink" x="0px" y="0px"
	 viewBox="0 0 281.6 220.8" style="enable-background:new 0 0 281.6 220.8;" xml:space="preserve">
<style type="text/css">
	.st0{fill:url(#SVGID_1_);}
	.st1{fill:url(#SVGID_2_);}
	.st2{fill:url(#SVGID_3_);}
	.st3{fill:url(#SVGID_4_);}
	.st4{fill:url(#SVGID_5_);}
	.st5{fill:#0078B4;}
</style>
<g>
	<linearGradient id="SVGID_1_" gradientUnits="userSpaceOnUse" x1="95.1049" y1="118.7814" x2="187.1382" y2="26.7481">
		<stop  offset="0" style="stop-color:#0078B4"/>
		<stop  offset="6.889468e-02" style="stop-color:#0081BA"/>
		<stop  offset="0.5012" style="stop-color:#00B8DF"/>
		<stop  offset="0.8244" style="stop-color:#00D9F6"/>
		<stop  offset="1" style="stop-color:#00E6FF"/>
	</linearGradient>
	<path class="st0" d="M138.4,11.1c0.4,1.1,10.1,16.6,7.5,48.3c-3.3-4.2-9.6-12.1-15.9-20.1l3.2-27.8l-6.9-0.8l-2.4,20.9l-6.3-8
		l2.6-22.9L113.3,0l-1.8,16l-11-13.8l-5.4,4.3l11,13.9L90,18.5l-0.8,6.9l23,2.6l6.3,8l-21-2.4l-0.8,6.9l27.9,3.2l6.4,8l-34.2-3.9
		l21.3,26.9L108,73.5L90.6,51.6L85.1,56l13.1,16.5l-10.1-1.2l-14.3-18l-5.4,4.3l10,12.6l-17.5-2L60,75l17.6,2L65,87.1l4.3,5.4
		l18.1-14.4l10.1,1.2L81,92.5l4.3,5.4l22-17.5l10.2,1.2l-27,21.4l34.1,3.9l-8,6.4l-27.8-3.2L88,117l20.9,2.4l-8,6.3L78,123.1
		l-0.8,6.9l16,1.8l-13.8,11l4.3,5.4l13.9-11l-1.8,16.1l6.9,0.8l2.6-23l8-6.3l-2.4,21l6.9,0.8l3.2-27.9l8-6.4l3-2.4
		c-3.8,12.6-5.1,26.9,2.7,43.6c42.5,4.7,79.5-28.5,79.5-71.1C214.1,41.6,179.8,8.7,138.4,11.1z M112.7,56.6l24.4,2.8L152.9,79
		l-25-3.2L112.7,56.6z M108,98l19.3-15.3l25,2.6l-19.9,15.5L108,98z M136.4,145.4c-2.1-12.2,0-32.4,11.7-33.9
		c11.5-1.4,19.3,1.8,23.6-3.8c3.5-4.6,0.3-6.5-1.3-10.5c-0.4-2.8,3.8-2.5,3.4-5.5c-0.3-2.5-1.6-2.7-3.2-3.9c0.9-0.6,2.6-2,2.4-3.8
		c-0.3-2.7-4.2-2.6-4.5-5.1c-0.6-4.7,7.5-2.5,6.7-8.9c-0.5-4-12.9-5.7-17.3-18.9c2.8-1.8,3.5-3.5,4.3-6.1c-1.3,2.5-2.4,4-4.9,4.5
		c-0.2-12.6-4.2-25.8-13.4-34.3c32.4,0.1,60.5,24.1,64.6,57.1C213.8,114.3,178.4,150.1,136.4,145.4z"/>
	<g>
		<linearGradient id="SVGID_2_" gradientUnits="userSpaceOnUse" x1="-52.645" y1="192.6746" x2="175.2328" y2="228.9279">
			<stop  offset="0" style="stop-color:#0078B4"/>
			<stop  offset="6.889468e-02" style="stop-color:#0081BA"/>
			<stop  offset="0.5012" style="stop-color:#00B8DF"/>
			<stop  offset="0.8244" style="stop-color:#00D9F6"/>
			<stop  offset="1" style="stop-color:#00E6FF"/>
		</linearGradient>
		<path class="st1" d="M21.9,192.7l-2.5,5.1c-2.7-1.6-6.1-2.7-8.2-2.7c-1.7,0-2.8,0.6-2.8,1.9c0,4.4,13.6,1.9,13.6,11.2
			c0,5.1-4.5,7.8-10.3,7.8c-4.3,0-8.7-1.6-11.7-4.1l2.5-5c2.6,2.3,6.6,3.9,9.3,3.9c2.1,0,3.3-0.8,3.3-2.2c0-4.5-13.6-1.8-13.6-10.9
			c0-4.7,4.1-7.7,10.2-7.7C15.5,189.8,19.3,191,21.9,192.7z"/>
		<linearGradient id="SVGID_3_" gradientUnits="userSpaceOnUse" x1="-51.9283" y1="188.1698" x2="175.9494" y2="224.423">
			<stop  offset="0" style="stop-color:#0078B4"/>
			<stop  offset="6.889468e-02" style="stop-color:#0081BA"/>
			<stop  offset="0.5012" style="stop-color:#00B8DF"/>
			<stop  offset="0.8244" style="stop-color:#00D9F6"/>
			<stop  offset="1" style="stop-color:#00E6FF"/>
		</linearGradient>
		<path class="st2" d="M47.2,215.8L35.4,200v15.8h-6.1v-25.7H35L46.8,206v-15.8h6.1v25.7H47.2z"/>
		<linearGradient id="SVGID_4_" gradientUnits="userSpaceOnUse" x1="-51.1233" y1="183.1098" x2="176.7544" y2="219.3631">
			<stop  offset="0" style="stop-color:#0078B4"/>
			<stop  offset="6.889468e-02" style="stop-color:#0081BA"/>
			<stop  offset="0.5012" style="stop-color:#00B8DF"/>
			<stop  offset="0.8244" style="stop-color:#00D9F6"/>
			<stop  offset="1" style="stop-color:#00E6FF"/>
		</linearGradient>
		<path class="st3" d="M87.8,202.9c0,7.5-5.9,13.2-13.9,13.2c-7.9,0-13.9-5.6-13.9-13.2c0-7.5,5.9-13,13.9-13
			C81.9,189.9,87.8,195.5,87.8,202.9z M66.7,203c0,4.3,3.3,7.7,7.3,7.7c4,0,7.1-3.3,7.1-7.7c0-4.3-3.2-7.6-7.1-7.6
			C70,195.4,66.7,198.6,66.7,203z"/>
		<linearGradient id="SVGID_5_" gradientUnits="userSpaceOnUse" x1="-50.0757" y1="176.5252" x2="177.802" y2="212.7784">
			<stop  offset="0" style="stop-color:#0078B4"/>
			<stop  offset="6.889468e-02" style="stop-color:#0081BA"/>
			<stop  offset="0.5012" style="stop-color:#00B8DF"/>
			<stop  offset="0.8244" style="stop-color:#00D9F6"/>
			<stop  offset="1" style="stop-color:#00E6FF"/>
		</linearGradient>
		<path class="st4" d="M116.7,215.8l-4.8-17.8l-4.8,17.8h-6.7L92,190.1h7l5,18.9l4.9-18.9h6.4l5,18.9l5-18.9h6.7l-8.5,25.7H116.7z"
			/>
		<path class="st5" d="M165.2,218.3c-2,1.8-4.3,2.8-6.6,2.8c-3,0-5.7-1.8-8.1-5.1h-0.3c-7.5,0-13.5-5.8-13.5-13
			c0-7.3,5.9-12.9,13.5-12.9c7.5,0,13.4,5.7,13.4,12.9c0,6.1-4.2,11.1-9.9,12.5c1.8,1.9,3.5,2.9,5.2,2.9c1.5,0,3.2-0.8,5-2.3
			L165.2,218.3z M150.2,213.1c5.7,0,10.4-4.5,10.4-10.2c0-5.6-4.7-10.1-10.4-10.1s-10.5,4.5-10.5,10.1
			C139.8,208.6,144.5,213.1,150.2,213.1z"/>
		<path class="st5" d="M194.3,205.2c0,6.7-4,10.7-10.7,10.7c-6.7,0-10.8-4-10.8-10.7v-15.1h2.9v15.1c0,5,3,7.9,7.9,7.9
			c4.9,0,7.8-2.9,7.8-7.9v-15.1h2.9V205.2z"/>
		<path class="st5" d="M208.1,193v8.4H221v2.8h-12.9v8.8h15v2.8h-17.9v-25.7h17.4v2.8H208.1z"/>
		<path class="st5" d="M235.6,193v8.4h12.9v2.8h-12.9v8.8h15v2.8h-17.9v-25.7h17.4v2.8H235.6z"/>
		<path class="st5" d="M278.6,215.8l-15.4-20.6v20.6h-2.9v-25.7h3l15.4,20.6v-20.6h2.9v25.7H278.6z"/>
	</g>
</g>
</svg>
