<?xml version="1.0" encoding="utf-8"?>
<!-- Generator: Adobe Illustrator 23.0.1, SVG Export Plug-In . SVG Version: 6.00 Build 0)  -->
<svg version="1.1" id="Logo" xmlns="http://www.w3.org/2000/svg" xmlns:xlink="http://www.w3.org/1999/xlink" x="0px" y="0px"
	 viewBox="0 0 281.6 31" style="enable-background:new 0 0 281.6 31;" xml:space="preserve">
<style type="text/css">
	.st0{fill:url(#SVGID_1_);}
	.st1{fill:url(#SVGID_2_);}
	.st2{fill:url(#SVGID_3_);}
	.st3{fill:url(#SVGID_4_);}
	.st4{fill:#0078B4;}
</style>
<g>
	<g>
		<linearGradient id="SVGID_1_" gradientUnits="userSpaceOnUse" x1="-52.645" y1="2.8388" x2="175.2328" y2="39.092">
			<stop  offset="0" style="stop-color:#0078B4"/>
			<stop  offset="6.889468e-02" style="stop-color:#0081BA"/>
			<stop  offset="0.5012" style="stop-color:#00B8DF"/>
			<stop  offset="0.8244" style="stop-color:#00D9F6"/>
			<stop  offset="1" style="stop-color:#00E6FF"/>
		</linearGradient>
		<path class="st0" d="M21.9,2.9L19.5,8c-2.7-1.6-6.1-2.7-8.2-2.7c-1.7,0-2.8,0.6-2.8,1.9C8.4,11.6,22,9.1,22,18.3
			c0,5.1-4.5,7.8-10.3,7.8C7.4,26.2,3,24.6,0,22.1l2.5-5c2.6,2.3,6.6,3.9,9.3,3.9c2.1,0,3.3-0.8,3.3-2.2c0-4.5-13.6-1.8-13.6-10.9
			C1.6,3,5.6,0,11.8,0C15.5,0,19.3,1.1,21.9,2.9z"/>
		<linearGradient id="SVGID_2_" gradientUnits="userSpaceOnUse" x1="-51.9283" y1="-1.6661" x2="175.9494" y2="34.5872">
			<stop  offset="0" style="stop-color:#0078B4"/>
			<stop  offset="6.889468e-02" style="stop-color:#0081BA"/>
			<stop  offset="0.5012" style="stop-color:#00B8DF"/>
			<stop  offset="0.8244" style="stop-color:#00D9F6"/>
			<stop  offset="1" style="stop-color:#00E6FF"/>
		</linearGradient>
		<path class="st1" d="M47.2,26L35.4,10.2V26h-6.1V0.3H35l11.8,15.8V0.3h6.1V26H47.2z"/>
		<linearGradient id="SVGID_3_" gradientUnits="userSpaceOnUse" x1="-51.1233" y1="-6.7261" x2="176.7544" y2="29.5272">
			<stop  offset="0" style="stop-color:#0078B4"/>
			<stop  offset="6.889468e-02" style="stop-color:#0081BA"/>
			<stop  offset="0.5012" style="stop-color:#00B8DF"/>
			<stop  offset="0.8244" style="stop-color:#00D9F6"/>
			<stop  offset="1" style="stop-color:#00E6FF"/>
		</linearGradient>
		<path class="st2" d="M87.8,13.1c0,7.5-5.9,13.2-13.9,13.2C66,26.3,60,20.6,60,13.1c0-7.5,5.9-13,13.9-13
			C81.9,0.1,87.8,5.6,87.8,13.1z M66.7,13.1c0,4.3,3.3,7.7,7.3,7.7c4,0,7.1-3.3,7.1-7.7S77.9,5.5,74,5.5C70,5.5,66.7,8.8,66.7,13.1z
			"/>
		<linearGradient id="SVGID_4_" gradientUnits="userSpaceOnUse" x1="-50.0757" y1="-13.3107" x2="177.802" y2="22.9426">
			<stop  offset="0" style="stop-color:#0078B4"/>
			<stop  offset="6.889468e-02" style="stop-color:#0081BA"/>
			<stop  offset="0.5012" style="stop-color:#00B8DF"/>
			<stop  offset="0.8244" style="stop-color:#00D9F6"/>
			<stop  offset="1" style="stop-color:#00E6FF"/>
		</linearGradient>
		<path class="st3" d="M116.7,26l-4.8-17.8L107.1,26h-6.7L92,0.3h7l5,18.9l4.9-18.9h6.4l5,18.9l5-18.9h6.7L123.4,26H116.7z"/>
		<path class="st4" d="M165.2,28.4c-2,1.8-4.3,2.8-6.6,2.8c-3,0-5.7-1.8-8.1-5.1h-0.3c-7.5,0-13.5-5.8-13.5-13
			c0-7.3,5.9-12.9,13.5-12.9c7.5,0,13.4,5.7,13.4,12.9c0,6.1-4.2,11.1-9.9,12.5c1.8,1.9,3.5,2.9,5.2,2.9c1.5,0,3.2-0.8,5-2.3
			L165.2,28.4z M150.2,23.3c5.7,0,10.4-4.5,10.4-10.2S156,3,150.2,3s-10.5,4.5-10.5,10.1S144.5,23.3,150.2,23.3z"/>
		<path class="st4" d="M194.3,15.4c0,6.7-4,10.7-10.7,10.7c-6.7,0-10.8-4-10.8-10.7V0.3h2.9v15.1c0,5,3,7.9,7.9,7.9
			c4.9,0,7.8-2.9,7.8-7.9V0.3h2.9V15.4z"/>
		<path class="st4" d="M208.1,3.1v8.4H221v2.8h-12.9v8.8h15V26h-17.9V0.3h17.4v2.8H208.1z"/>
		<path class="st4" d="M235.6,3.1v8.4h12.9v2.8h-12.9v8.8h15V26h-17.9V0.3h17.4v2.8H235.6z"/>
		<path class="st4" d="M278.6,26L263.2,5.4V26h-2.9V0.3h3l15.4,20.6V0.3h2.9V26H278.6z"/>
	</g>
</g>
</svg>
