<?xml version="1.0" encoding="utf-8"?>
<!-- Generator: Adobe Illustrator 23.0.1, SVG Export Plug-In . SVG Version: 6.00 Build 0)  -->
<svg version="1.1" id="Logo" xmlns="http://www.w3.org/2000/svg" xmlns:xlink="http://www.w3.org/1999/xlink" x="0px" y="0px"
	 viewBox="0 0 281.6 220.8" style="enable-background:new 0 0 281.6 220.8;" xml:space="preserve">
<style type="text/css">
	.st0{fill:#D8E0E5;}
</style>
<g>
	<g>
		<path class="st0" d="M47.7,195.2l-2,4.1c-2.2-1.3-4.9-2.2-6.6-2.2c-1.4,0-2.3,0.5-2.3,1.5c0,3.5,11,1.5,11,9
			c0,4.1-3.6,6.3-8.3,6.3c-3.5,0-7-1.3-9.4-3.3l2-4c2.1,1.9,5.3,3.1,7.5,3.1c1.7,0,2.7-0.6,2.7-1.8c0-3.6-11-1.5-11-8.8
			c0-3.8,3.3-6.2,8.2-6.2C42.5,192.9,45.6,193.8,47.7,195.2z"/>
		<path class="st0" d="M68,213.8l-9.5-12.7v12.7h-4.9v-20.7h4.6l9.5,12.8v-12.7h4.9v20.7L68,213.8L68,213.8z"/>
		<path class="st0" d="M100.8,203.4c0,6-4.8,10.6-11.2,10.6c-6.4,0-11.2-4.5-11.2-10.6c0-6,4.8-10.5,11.2-10.5
			S100.8,197.5,100.8,203.4z M83.8,203.5c0,3.5,2.7,6.2,5.9,6.2s5.7-2.7,5.7-6.2c0-3.5-2.6-6.1-5.7-6.1
			C86.4,197.4,83.8,200,83.8,203.5z"/>
		<path class="st0" d="M124.1,213.8l-3.9-14.3l-3.9,14.3h-5.4l-6.8-20.7h5.6l4,15.2l3.9-15.2h5.2l4,15.2l4-15.2h5.4l-6.9,20.7H124.1
			z"/>
		<path class="st0" d="M163.2,215.8c-1.6,1.5-3.5,2.3-5.3,2.3c-2.4,0-4.6-1.5-6.5-4.1h-0.2c-6,0-10.9-4.7-10.9-10.5
			c0-5.9,4.8-10.4,10.9-10.4c6,0,10.8,4.6,10.8,10.4c0,4.9-3.4,8.9-8,10.1c1.5,1.5,2.8,2.3,4.2,2.3c1.2,0,2.6-0.6,4-1.9L163.2,215.8
			z M151.1,211.7c4.6,0,8.4-3.6,8.4-8.2c0-4.5-3.8-8.1-8.4-8.1s-8.5,3.6-8.5,8.1C142.7,208,146.5,211.7,151.1,211.7z"/>
		<path class="st0" d="M186.6,205.3c0,5.4-3.2,8.6-8.6,8.6s-8.7-3.2-8.7-8.6v-12.2h2.3v12.2c0,4,2.4,6.4,6.4,6.4s6.3-2.3,6.3-6.4
			v-12.2h2.3V205.3L186.6,205.3z"/>
		<path class="st0" d="M197.7,195.4v6.8h10.4v2.3h-10.4v7.1h12.1v2.3h-14.4v-20.7h14v2.3L197.7,195.4L197.7,195.4z"/>
		<path class="st0" d="M219.9,195.4v6.8h10.4v2.3h-10.4v7.1H232v2.3h-14.4v-20.7h14v2.3L219.9,195.4L219.9,195.4z"/>
		<path class="st0" d="M254.6,213.8l-12.4-16.6v16.6h-2.3v-20.7h2.4l12.4,16.6v-16.6h2.3v20.7H254.6z"/>
	</g>
</g>
<g>
	<path class="st0" d="M188.5,20.4c-1.1,0.7-20,8-39.1,37.9c5.7-1.5,16.6-4.3,27.5-7.2l15.9-26.8l6.6,3.9l-12,20.1l10.9-2.9
		l13.1-22.1l6.5,4l-9.2,15.4l19-4.9l1.9,7.5l-19,5l15.3,9.1L222,66l-21.9-13l-10.9,2.9l20.1,11.9l-3.9,6.7l-26.6-15.7l-11,2.8
		l32.6,19.3l-36.8,9.7l9.8,5.7l30-8l1.8,7.5l-22.6,5.9l9.7,5.7l24.7-6.5l1.8,7.4l-17.3,4.5l16.7,9.9l-3.8,6.6l-16.8-9.9l4.3,17.4
		l-7.4,1.9l-6.2-24.8l-9.7-5.7l5.6,22.7l-7.4,1.9l-7.5-30.2l-9.8-5.7l9.3,37l-32.6-19.3l2.7,11l26.6,15.7l-3.9,6.7l-20-11.8
		l2.8,10.9l21.8,12.9l-3.9,6.7l-15.3-9.1l4.7,19l-7.4,1.9l-4.8-19l-9.3,15.5l-6.6-3.9l13.2-22.1l-2.8-10.9l-12,20.2l-6.6-3.9
		l16-26.9l-2.7-11l-1-4.1c-5.2,13.7-13.6,27.3-31.7,36.9C55.3,125.1,45.2,71,73.9,33.2C101.5-2.9,153.8-9.2,188.5,20.4z M180.5,78
		l-23.3-13.8L130,71l24.1,13.8L180.5,78z M156.7,117.9l-6.6-26.4l-23.7-14.3l7,27L156.7,117.9z M99.9,141
		c10.1-9.4,21.8-28.8,12.6-37.9c-9.2-8.9-18.2-11.3-18.2-19.1c0-6.4,4.1-6,8.2-8.5c2.2-2.2-1.7-4.8,0.7-7.1c1.9-2,3.2-1.3,5.4-1.3
		c-0.4-1.1-0.9-3.5,0.5-5c2.1-2.2,5.4,0.5,7.4-1.5c3.7-3.8-4.9-7.2,0.1-12.4c3.1-3.2,15.2,3.5,27.9-5.3c-1.2-3.5-0.7-5.4,0.3-8.3
		c-0.5,3.1-0.6,5.1,1.3,7.3c8.7-11.1,21.1-20.1,34.9-21.5C152.5-1,111.6,1.5,85.8,28.1C52.9,61.8,59.8,117.2,99.9,141z"/>
</g>
</svg>
