<svg xmlns="http://www.w3.org/2000/svg" viewBox="0 0 152.5 154.1"><path d="M113.6 17.9c-.9.6-17.2 6.9-33.5 32.5 4.9-1.3 14.2-3.7 23.6-6.2l13.6-23 5.7 3.3-10.3 17.3 9.4-2.5 11.3-18.9 5.6 3.4-8 13.2 16.3-4.2 1.7 6.4-16.3 4.3 13.2 7.8-3.4 5.7-18.8-11.2-9.4 2.5 17.2 10.2-3.4 5.7-22.9-13.5-9.4 2.4 28 16.6L92.2 78l8.4 4.9 25.7-6.9 1.5 6.4-19.4 5.1 8.3 4.9 21.2-5.5 1.6 6.4-14.8 3.9 14.3 8.5-3.3 5.7-14.4-8.5 3.7 14.9-6.4 1.7-5.3-21.3-8.3-4.9 4.8 19.5-6.4 1.7-6.4-26-8.4-4.9 8 31.7-27.9-16.5 2.3 9.4 22.8 13.4-3.4 5.7-17.1-10.1 2.4 9.4 18.7 11-3.4 5.7-13.1-7.8 4 16.3-6.4 1.7-4.1-16.3-7.9 13.3-5.7-3.3 11.3-19-2.4-9.4-10.3 17.4-5.7-3.3 13.7-23.1-2.3-9.4-.9-3.5c-4.4 11.8-11.7 23.4-27.2 31.6C-.6 107.7-9.3 61.3 15.3 28.9c23.6-31 68.5-36.4 98.3-11zm-6.9 49.4l-20-11.8-23.3 5.8 20.7 11.8 22.6-5.8zm-20.4 34.2l-5.7-22.7-20.3-12.3 6 23.2 20 11.8zm-48.7 19.8c8.6-8.1 18.7-24.7 10.8-32.5-7.8-7.6-15.6-9.7-15.6-16.4 0-5.5 3.5-5.1 7-7.2 1.9-1.9-1.4-4.1.6-6.1 1.7-1.7 2.8-1.1 4.7-1.1-.3-1-.8-3 .4-4.3 1.8-1.9 4.7.4 6.3-1.3 3.2-3.2-4.2-6.2.1-10.6 2.7-2.8 13 3 23.9-4.5-1.1-3-.6-4.7.3-7.1-.5 2.6-.5 4.4 1.1 6.2 7.4-9.5 18.1-17.2 29.9-18.5C82.7-.5 47.7 1.7 25.5 24.5c-28.2 29-22.3 76.4 12.1 96.8z" fill="#fff"/></svg>