<?xml version="1.0" encoding="utf-8"?>
<!-- Generator: Adobe Illustrator 23.0.1, SVG Export Plug-In . SVG Version: 6.00 Build 0)  -->
<svg version="1.1" id="Logo" xmlns="http://www.w3.org/2000/svg" xmlns:xlink="http://www.w3.org/1999/xlink" x="0px" y="0px"
	 viewBox="0 0 152.5 154.1" style="enable-background:new 0 0 152.5 154.1;" xml:space="preserve">
<style type="text/css">
	.st0{fill:url(#SVGID_1_);}
</style>
<g>
	<linearGradient id="SVGID_1_" gradientUnits="userSpaceOnUse" x1="35.0595" y1="118.7814" x2="127.0928" y2="26.7481">
		<stop  offset="0" style="stop-color:#0078B4"/>
		<stop  offset="6.889468e-02" style="stop-color:#0081BA"/>
		<stop  offset="0.5012" style="stop-color:#00B8DF"/>
		<stop  offset="0.8244" style="stop-color:#00D9F6"/>
		<stop  offset="1" style="stop-color:#00E6FF"/>
	</linearGradient>
	<path class="st0" d="M78.4,11.1c0.4,1.1,10.1,16.6,7.5,48.3c-3.3-4.2-9.6-12.1-15.9-20.1l3.2-27.8l-6.9-0.8l-2.4,20.9l-6.3-8
		l2.6-22.9L53.3,0l-1.8,16l-11-13.8L35,6.5l11,13.9l-16.1-1.8l-0.8,6.9l23,2.6l6.3,8l-21-2.4l-0.8,6.9l27.9,3.2l6.4,8l-34.2-3.9
		l21.3,26.9l-10.2-1.2L30.5,51.6L25.1,56l13.1,16.5l-10.1-1.2l-14.3-18l-5.4,4.3l10,12.6l-17.5-2L0,75l17.6,2L4.9,87.1l4.3,5.4
		l18.1-14.4l10.1,1.2L20.9,92.5l4.3,5.4l22-17.5l10.2,1.2l-27,21.4l34.1,3.9l-8,6.4l-27.8-3.2l-0.8,6.9l20.9,2.4l-8,6.3L18,123.1
		l-0.8,6.9l16,1.8l-13.8,11l4.3,5.4l13.9-11l-1.8,16.1l6.9,0.8l2.6-23l8-6.3l-2.4,21l6.9,0.8l3.2-27.9l8-6.4l3-2.4
		c-3.8,12.6-5.1,26.9,2.7,43.6c42.5,4.7,79.5-28.5,79.5-71.1C154.1,41.6,119.7,8.7,78.4,11.1z M52.6,56.6l24.4,2.8L92.9,79l-25-3.2
		L52.6,56.6z M47.9,98l19.3-15.3l25,2.6l-19.9,15.5L47.9,98z M76.3,145.4c-2.1-12.2,0-32.4,11.7-33.9c11.5-1.4,19.3,1.8,23.6-3.8
		c3.5-4.6,0.3-6.5-1.3-10.5c-0.4-2.8,3.8-2.5,3.4-5.5c-0.3-2.5-1.6-2.7-3.2-3.9c0.9-0.6,2.6-2,2.4-3.8c-0.3-2.7-4.2-2.6-4.5-5.1
		c-0.6-4.7,7.5-2.5,6.7-8.9c-0.5-4-12.9-5.7-17.3-18.9c2.8-1.8,3.5-3.5,4.3-6.1c-1.3,2.5-2.4,4-4.9,4.5C97,36.9,93,23.7,83.8,15.2
		c32.4,0.1,60.5,24.1,64.6,57.1C153.7,114.3,118.3,150.1,76.3,145.4z"/>
</g>
</svg>
